<svg xmlns="http://www.w3.org/2000/svg" width="1024" height="1024" viewBox="0 0 1024 1024">
  <rect width="1024" height="1024" fill="#001F3F"/>
  <path d="M512 256C370.8 256 256 370.8 256 512C256 653.2 370.8 768 512 768C653.2 768 768 653.2 768 512C768 370.8 653.2 256 512 256zM512 313C621.9 313 711 402.1 711 512C711 621.9 621.9 711 512 711C402.1 711 313 621.9 313 512C313 402.1 402.1 313 512 313z" fill="#2196F3"/>
  <path d="M512 341L512 398" fill="#2196F3"/>
  <path d="M512 626L512 683" fill="#2196F3"/>
  <path d="M341 512L398 512" fill="#2196F3"/>
  <path d="M626 512L683 512" fill="#2196F3"/>
  <path d="M512 512L617 407" stroke="#2196F3" stroke-width="38" stroke-linecap="round" fill="none"/>
</svg>